<svg width="75" height="26" viewBox="0 0 75 26" fill="none" xmlns="http://www.w3.org/2000/svg">
<path d="M21.5043 9.33344L22.4847 9.61358C23.9125 9.92564 25.0665 11.3103 24.9971 12.8644C24.9748 14.1792 24.0784 15.4295 22.8163 15.8039C22.5759 15.8918 21.6927 16.0863 21.4281 16.16C18.9412 16.6876 16.803 18.7751 16.404 21.3236L16.1932 22.3306C15.6707 25.5153 11.1444 26.0158 9.99626 22.9316C9.9734 22.8604 9.92572 22.7345 9.90569 22.6687C9.89948 22.6483 9.84333 22.3843 9.83712 22.351C9.63708 21.3916 9.52591 20.4139 9.07841 19.5187C8.26044 17.7531 6.49584 16.5263 4.60144 16.2072C3.77501 16.0253 2.72031 15.9053 2.06458 15.2767C0.236496 13.7257 0.862599 10.5628 3.17994 9.88667C3.43388 9.80647 4.30659 9.62601 4.58282 9.56416C5.81838 9.32976 7.04153 8.76213 7.97066 7.84882C8.91278 6.9519 9.54086 5.74829 9.80298 4.50485C10.0033 3.79149 10.0386 3.03295 10.5081 2.31931C11.861 0.255761 15.1984 0.692926 15.9224 3.07248C16.0691 3.53139 16.1599 3.99652 16.2779 4.46164C16.544 5.69519 17.143 6.8974 18.0656 7.80844C18.9553 8.74462 20.3268 9.01855 21.5043 9.33344ZM20.7845 11.2809C19.4208 10.6729 18.4581 9.44753 17.4296 8.44357C16.4345 7.43538 15.5423 6.29587 14.8736 4.98155C14.5607 4.40657 14.2433 3.6308 14.0158 3.44837C13.2145 2.69067 11.9364 3.03295 11.5532 4.06768C10.141 7.0146 8.01524 9.46956 5.1381 11.0654C4.94483 11.1792 4.10457 11.606 3.92286 11.7246C3.37604 12.0652 3.18897 12.7878 3.41046 13.3761C3.61954 13.8076 3.71745 13.9223 4.2575 14.2052C7.18006 15.6961 9.59955 17.9341 11.2578 20.7401C11.5947 21.2993 11.9699 22.0889 12.1669 22.1897C12.8951 22.7463 13.9179 22.4902 14.2667 21.6178C15.0804 20.0101 16.1563 18.4775 17.4017 17.2589C18.4178 16.2569 19.5805 15.3865 20.8996 14.7325C21.4746 14.4255 22.2545 14.1041 22.4227 13.8689C22.9636 13.2843 22.8056 12.2484 22.0934 11.892C21.9219 11.7915 21.0077 11.3899 20.7842 11.2818L20.7845 11.2809Z" fill="white" stroke="white" stroke-width="0.5"/>
<path d="M40.7601 11.16C40.7601 13 39.5441 14.504 36.7441 14.504C36.3601 14.504 35.9761 14.456 35.6721 14.408V19H34.2321V8.424C34.9521 8.072 35.9601 7.832 36.9841 7.832C39.5761 7.832 40.7601 9.208 40.7601 11.16ZM39.3361 11.128C39.3361 9.64 38.6481 8.712 36.9841 8.712C36.5041 8.712 36.0241 8.808 35.6721 8.936V13.528C35.9601 13.576 36.3601 13.608 36.7441 13.608C38.6641 13.608 39.3361 12.52 39.3361 11.128ZM47.6459 19H42.8619V7.992H44.3339V18.008H47.6459V19ZM56.1824 15.864C56.1824 17.736 54.8544 19.176 52.7264 19.176C50.5984 19.176 49.2864 17.736 49.2864 15.864V7.992H50.7584V15.864C50.7584 17.224 51.7024 18.024 52.7904 18.024C53.8784 18.024 54.8224 17.224 54.8224 15.864V7.992H56.1824V15.864ZM64.1658 8.984H61.8458V19H60.3738V8.984H58.0538V7.992H64.1658V8.984ZM73.1596 13.496C73.1596 16.68 71.9436 19.16 69.1756 19.16C66.4076 19.16 65.1916 16.68 65.1916 13.496C65.1916 10.312 66.4076 7.832 69.1756 7.832C71.9436 7.832 73.1596 10.312 73.1596 13.496ZM71.6716 13.464C71.6716 11 71.0796 8.84 69.1756 8.84C67.2716 8.84 66.6796 11 66.6796 13.464C66.6796 15.928 67.2716 18.104 69.1756 18.104C71.0796 18.104 71.6716 15.928 71.6716 13.464Z" fill="white"/>
</svg>
